# xmcd CD database file
#
# Track frame offsets:
#	150
#	59646
#	109822
#	163656
#	216480
#	252680
#
# Disc length: 3806 seconds
#
# Revision: 0
# Processed by: cddbd v1.5.2PL0 Copyright (c) Steve Scherf et al.
# Submitted via: CDex 1.51
#
DISCID=600edc06
DTITLE=Tubby Hayes - In Scandinavia
DYEAR=1972
DGENRE=Jazz
TTITLE0=Off The Wagon
TTITLE1=Without A Song
TTITLE2=Vierd Blues
TTITLE3=I Thought About You
TTITLE4=C Minor Bird
TTITLE5=Rhythm-A-nnNing
EXTD=YEAR: 1972
EXTT0=
EXTT1=
EXTT2=
EXTT3=
EXTT4=
EXTT5=
PLAYORDER=
